Run_30002
nRows=4
nColumns=164

# SIMM Motion File Header:
name Run_30002
datacolumns 164
datarows 4
otherdata 1
range 4.07000000 4.10000000
endheader
time	pelvis_tilt	pelvis_list	pelvis_rotation	pelvis_tx	pelvis_ty	pelvis_tz	hip_flexion_r	hip_adduction_r	hip_rotation_r	knee_angle_r	ankle_angle_r	hip_flexion_l	hip_adduction_l	hip_rotation_l	knee_angle_l	ankle_angle_l	lumbar_extension	lumbar_bending	lumbar_rotation	arm_flex_r	arm_add_r	arm_rot_r	elbow_flex_r	pro_sup_r	arm_flex_l	arm_add_l	arm_rot_l	elbow_flex_l	pro_sup_l	subtalar_angle_r	mtp_angle_r	subtalar_angle_l	mtp_angle_l	wrist_flex_r	wrist_dev_r	wrist_flex_l	wrist_dev_l	LASI_tx	LASI_ty	LASI_tz	RASI_tx	RASI_ty	RASI_tz	LPSI_tx	LPSI_ty	LPSI_tz	RPSI_tx	RPSI_ty	RPSI_tz	RTH1_tx	RTH1_ty	RTH1_tz	RTH2_tx	RTH2_ty	RTH2_tz	RTH3_tx	RTH3_ty	RTH3_tz	LTH1_tx	LTH1_ty	LTH1_tz	LTH2_tx	LTH2_ty	LTH2_tz	LTH3_tx	LTH3_ty	LTH3_tz	RTB1_tx	RTB1_ty	RTB1_tz	RTB2_tx	RTB2_ty	RTB2_tz	RTB3_tx	RTB3_ty	RTB3_tz	LTB1_tx	LTB1_ty	LTB1_tz	LTB2_tx	LTB2_ty	LTB2_tz	LTB3_tx	LTB3_ty	LTB3_tz	RCAL_tx	RCAL_ty	RCAL_tz	RTOE_tx	RTOE_ty	RTOE_tz	RMT5_tx	RMT5_ty	RMT5_tz	LCAL_tx	LCAL_ty	LCAL_tz	LTOE_tx	LTOE_ty	LTOE_tz	LMT5_tx	LMT5_ty	LMT5_tz	LACR_tx	LACR_ty	LACR_tz	RACR_tx	RACR_ty	RACR_tz	CLAV_tx	CLAV_ty	CLAV_tz	C7_tx	C7_ty	C7_tz	RUA1_tx	RUA1_ty	RUA1_tz	RUA2_tx	RUA2_ty	RUA2_tz	RUA3_tx	RUA3_ty	RUA3_tz	RLEL_tx	RLEL_ty	RLEL_tz	RMEL_tx	RMEL_ty	RMEL_tz	LUA1_tx	LUA1_ty	LUA1_tz	LUA2_tx	LUA2_ty	LUA2_tz	LUA3_tx	LUA3_ty	LUA3_tz	LLEL_tx	LLEL_ty	LLEL_tz	LMEL_tx	LMEL_ty	LMEL_tz	RFAsuperior_tx	RFAsuperior_ty	RFAsuperior_tz	RFAradius_tx	RFAradius_ty	RFAradius_tz	RFAulna_tx	RFAulna_ty	RFAulna_tz	LFAsuperior_tx	LFAsuperior_ty	LFAsuperior_tz	LFAradius_tx	LFAradius_ty	LFAradius_tz	LFAulna_tx	LFAulna_ty	LFAulna_tz
      4.07000000	      0.01032025	      4.33965089	     -1.28225559	      0.79661499	      1.03639433	     -0.30107457	    -21.14925471	     -2.24203808	      0.70690819	    -15.73638350	    -18.22288221	     23.95009103	      8.29435452	      4.29446496	    -21.01861655	     -0.05728770	    -10.73340171	     -4.65778833	     11.38642567	    -19.97715311	    -26.31952086	    -18.15604521	     99.57995277	     68.95053446	    -38.89735266	    -17.74214321	    -10.88998626	     93.33495671	     93.83962575	      0.00000000	      0.00000000	      0.00000000	      0.00000000	      0.00000000	      0.00000000	      0.00000000	      0.00000000	      0.79476605	      1.07111287	     -0.43362323	      0.80099710	      1.04250325	     -0.17358041	      0.62955563	      1.08670196	     -0.35869150	      0.62885201	      1.08105013	     -0.25864873	      0.65174507	      0.87781199	     -0.13299912	      0.69240614	      0.75749817	     -0.14709740	      0.57778161	      0.67258947	     -0.17110953	      0.77891060	      0.87883568	     -0.47526559	      0.88949053	      0.78211938	     -0.45510909	      0.87634987	      0.65385555	     -0.43230424	      0.51955707	      0.42301732	     -0.23758836	      0.46126022	      0.39334269	     -0.17339284	      0.41265002	      0.29155715	     -0.23526423	      0.95125758	      0.42519339	     -0.36477226	      0.90525644	      0.33548411	     -0.42341757	      0.94585051	      0.26892781	     -0.35577608	      0.25416130	      0.26570786	     -0.24604158	      0.37647485	      0.07842511	     -0.27031960	      0.32887969	      0.09518938	     -0.18227057	      0.84257265	      0.12060776	     -0.33648714	      1.07142304	      0.12544569	     -0.33035021	      1.02196748	      0.09247025	     -0.41659393	      0.75469742	      1.52640324	     -0.46008209	      0.80710369	      1.53983413	     -0.13556650	      0.84101450	      1.47248070	     -0.27877795	      0.71637179	      1.55040817	     -0.28473574	      0.76891234	      1.47041479	     -0.04330793	      0.69665202	      1.40251707	     -0.04652462	      0.73570353	      1.35352910	     -0.00076366	      0.70657346	      1.25487922	      0.04314975	      0.67545065	      1.23317558	     -0.02981253	      0.66734257	      1.48529331	     -0.52393472	      0.60442367	      1.43131256	     -0.47327628	      0.55828818	      1.38843306	     -0.53201665	      0.50915173	      1.31880059	     -0.55919369	      0.50931540	      1.30982611	     -0.48195782	      0.80914089	      1.22447738	      0.03661114	      0.94869175	      1.18183215	     -0.01888735	      0.92257285	      1.11821552	      0.00292779	      0.58510664	      1.23987541	     -0.58193864	      0.70398889	      1.12682492	     -0.54690745	      0.64903237	      1.08894153	     -0.57294566
      4.08000000	     -0.39194251	      3.64631122	     -1.61140340	      0.79795772	      1.03791202	     -0.30127565	    -20.44731797	     -1.79482787	      0.73954789	    -18.27784018	    -20.85494309	     22.66498186	      7.27994492	      5.36029185	    -14.65521621	      0.64299204	    -10.19755585	     -3.95484118	     11.69606283	    -20.15159388	    -26.37319565	    -18.29345503	    100.05288484	     69.38846188	    -39.80304923	    -16.95676124	    -11.86853947	     93.97922073	     94.08541437	      0.00000000	      0.00000000	      0.00000000	      0.00000000	      0.00000000	      0.00000000	      0.00000000	      0.00000000	      0.79711707	      1.07292888	     -0.43316198	      0.80134787	      1.04598356	     -0.17375741	      0.63187035	      1.08987504	     -0.36001876	      0.62990810	      1.08493753	     -0.25935375	      0.65205653	      0.88191016	     -0.13544701	      0.69312428	      0.75991875	     -0.14786106	      0.57926753	      0.67526963	     -0.17181229	      0.77690578	      0.87776405	     -0.47601862	      0.88490300	      0.77831003	     -0.45504155	      0.86862266	      0.64940023	     -0.43432613	      0.51673310	      0.42653760	     -0.23714571	      0.45701088	      0.39912856	     -0.17288373	      0.40533007	      0.29879382	     -0.23394817	      0.95237290	      0.42455383	     -0.36448331	      0.91352580	      0.33229641	     -0.42426178	      0.95936462	      0.26870870	     -0.35622046	      0.24975559	      0.28209885	     -0.24436399	      0.35580573	      0.08475150	     -0.26897039	      0.30816815	      0.10473735	     -0.18209589	      0.86914861	      0.11103957	     -0.33893674	      1.09611324	      0.13757486	     -0.32859907	      1.05176573	      0.10303356	     -0.41383062	      0.75609923	      1.52871275	     -0.46102677	      0.80766303	      1.54217137	     -0.13708340	      0.84178809	      1.47461258	     -0.27988126	      0.71768245	      1.55269077	     -0.28600848	      0.76891980	      1.47330574	     -0.04483321	      0.69651543	      1.40543448	     -0.04861989	      0.73528216	      1.35677522	     -0.00220025	      0.70671861	      1.25780291	      0.04191462	      0.67608734	      1.23609152	     -0.03123369	      0.66797441	      1.48898299	     -0.52417471	      0.60610580	      1.43484219	     -0.47157569	      0.55791660	      1.39308315	     -0.52927515	      0.50805196	      1.32391905	     -0.55745415	      0.50937077	      1.31419032	     -0.48020571	      0.80947282	      1.22787107	      0.03536016	      0.94935964	      1.18613256	     -0.02041956	      0.92376016	      1.12233003	      0.00175967	      0.58372327	      1.24498584	     -0.58148833	      0.70309673	      1.13167044	     -0.54763226	      0.64798264	      1.09353136	     -0.57291696
      4.09000000	     -0.66778489	      3.07472099	     -1.87408577	      0.79875390	      1.03839421	     -0.30182596	    -19.45022694	     -1.41777185	      1.06384844	    -21.63697048	    -23.03718259	     21.54247865	      6.45062787	      6.03696412	     -9.57287592	      1.37472425	     -9.91305731	     -3.38258436	     11.82894987	    -20.24385957	    -26.46479458	    -18.40572050	    100.49495618	     69.84121999	    -40.38031366	    -16.19926663	    -12.64373939	     94.60726507	     94.36361786	      0.00000000	      0.00000000	      0.00000000	      0.00000000	      0.00000000	      0.00000000	      0.00000000	      0.00000000	      0.79900793	      1.07346781	     -0.43286546	      0.80133197	      1.04822824	     -0.17397853	      0.63354513	      1.09100088	     -0.36146819	      0.63029505	      1.08731393	     -0.25987923	      0.65361391	      0.88402543	     -0.13769413	      0.69564545	      0.76048121	     -0.14936801	      0.58322722	      0.67550529	     -0.17269865	      0.77466558	      0.87531427	     -0.47766506	      0.88025549	      0.77328773	     -0.45583313	      0.86015456	      0.64382887	     -0.43758175	      0.51622479	      0.42817302	     -0.23723795	      0.45519314	      0.40323171	     -0.17268272	      0.39933917	      0.30500030	     -0.23291956	      0.95276713	      0.42437240	     -0.36412689	      0.91976125	      0.33080574	     -0.42480669	      0.96909836	      0.26944098	     -0.35632043	      0.24656829	      0.29754724	     -0.24247343	      0.33565241	      0.09166604	     -0.26759063	      0.28852320	      0.11509373	     -0.18179060	      0.88917111	      0.10524603	     -0.34050290	      1.11301732	      0.14967711	     -0.32548075	      1.07321516	      0.11273534	     -0.41181639	      0.75783063	      1.52967878	     -0.46220983	      0.80817625	      1.54320076	     -0.13874143	      0.84252036	      1.47533283	     -0.28093520	      0.71904870	      1.55384166	     -0.28755722	      0.76864110	      1.47501099	     -0.04647579	      0.69623036	      1.40702745	     -0.05088457	      0.73458103	      1.35883100	     -0.00368154	      0.70642606	      1.25959380	      0.04062697	      0.67654891	      1.23785340	     -0.03289883	      0.66913168	      1.49075416	     -0.52495663	      0.60791585	      1.43667275	     -0.47054580	      0.55835321	      1.39563499	     -0.52712509	      0.50806625	      1.32681067	     -0.55663365	      0.51019263	      1.31632741	     -0.47922762	      0.80937874	      1.22998304	      0.03414995	      0.94948833	      1.18889723	     -0.02179486	      0.92435806	      1.12496545	      0.00077311	      0.58358726	      1.24793975	     -0.58112142	      0.70366954	      1.13476004	     -0.54809578	      0.64858180	      1.09623447	     -0.57284986
      4.10000000	     -0.79284826	      2.67111963	     -2.04268101	      0.79894117	      1.03789736	     -0.30258797	    -18.24495912	     -1.09587859	      1.68379153	    -25.68468054	    -24.66621762	     20.65122945	      5.92194347	      6.29027376	     -6.04003885	      1.86869343	     -9.90052916	     -3.01249161	     11.77562390	    -20.24455728	    -26.55522224	    -18.46429276	    100.87862950	     70.26009063	    -40.61855973	    -15.57534982	    -13.17750793	     95.21643382	     94.56460422	      0.00000000	      0.00000000	      0.00000000	      0.00000000	      0.00000000	      0.00000000	      0.00000000	      0.00000000	      0.80033069	      1.07290264	     -0.43281738	      0.80104168	      1.04934636	     -0.17418273	      0.63442910	      1.09004486	     -0.36282030	      0.63009908	      1.08813022	     -0.26007154	      0.65607066	      0.88378870	     -0.13925837	      0.69959454	      0.75913380	     -0.15159349	      0.58921671	      0.67329770	     -0.17368575	      0.77183359	      0.87111945	     -0.47990646	      0.87576772	      0.76740036	     -0.45711362	      0.85291363	      0.63851611	     -0.44114787	      0.51776755	      0.42794661	     -0.23783432	      0.45563303	      0.40578253	     -0.17287176	      0.39460261	      0.31034536	     -0.23215404	      0.95260330	      0.42436870	     -0.36366979	      0.92444010	      0.33006709	     -0.42537983	      0.97475712	      0.27018014	     -0.35544855	      0.24442926	      0.31219753	     -0.24051626	      0.31663810	      0.09964233	     -0.26648398	      0.27055678	      0.12647738	     -0.18121230	      0.90154210	      0.10226201	     -0.34053429	      1.12260403	      0.15872846	     -0.32178752	      1.08592162	      0.11920762	     -0.41034741	      0.75973472	      1.52929589	     -0.46366071	      0.80865970	      1.54302341	     -0.14033455	      0.84314111	      1.47471490	     -0.28197750	      0.72034129	      1.55390988	     -0.28934816	      0.76814535	      1.47548431	     -0.04816022	      0.69586071	      1.40727778	     -0.05316971	      0.73366888	      1.35962853	     -0.00518713	      0.70570189	      1.26023730	      0.03929424	      0.67656188	      1.23835834	     -0.03462465	      0.67067237	      1.49065450	     -0.52638013	      0.60967405	      1.43685475	     -0.47045375	      0.55947118	      1.39605846	     -0.52595438	      0.50898593	      1.32739240	     -0.55678493	      0.51167009	      1.31627568	     -0.47922627	      0.80882807	      1.23077120	      0.03298298	      0.94902223	      1.19004525	     -0.02301189	      0.92424680	      1.12604922	     -0.00006152	      0.58465631	      1.24864104	     -0.58105834	      0.70557213	      1.13610704	     -0.54841433	      0.65073600	      1.09704900	     -0.57283361
